ffmpeg version N-85962-g164e277 Copyright (c) 2000-2017 the FFmpeg developers
  built with Apple LLVM version 8.0.0 (clang-800.0.42.1)
  configuration: 
  libavutil      55. 62.100 / 55. 62.100
  libavcodec     57. 95.100 / 57. 95.100
  libavformat    57. 72.101 / 57. 72.101
  libavdevice    57.  7.100 / 57.  7.100
  libavfilter     6. 88.100 /  6. 88.100
  libswscale      4.  7.101 /  4.  7.101
  libswresample   2.  8.100 /  2.  8.100
Input #0, mov,mp4,m4a,3gp,3g2,mj2, from 'ios_android_douyin.mp4':
  Metadata:
    major_brand     : isom
    minor_version   : 512
    compatible_brands: isomiso2avc1mp41
    encoder         : Lavf55.19.104
  Duration: 00:00:15.23, start: -0.021814, bitrate: 1673 kb/s
    Stream #0:0(und): Video: h264 (Constrained Baseline) (avc1 / 0x31637661), yuv420p, 540x960, 1592 kb/s, 30.07 fps, 30 tbr, 16k tbn, 2k tbc (default)
    Metadata:
      handler_name    : VideoHandler
    Stream #0:1(und): Audio: aac (LC) (mp4a / 0x6134706D), 44100 Hz, stereo, fltp, 128 kb/s (default)
    Metadata:
      handler_name    : SoundHandler
Output #0, h264, to 'ios_android_douyin.mp4.ffmpeg_trans.264':
  Metadata:
    major_brand     : isom
    minor_version   : 512
    compatible_brands: isomiso2avc1mp41
    encoder         : Lavf57.72.101
    Stream #0:0(und): Video: h264 (Constrained Baseline) (avc1 / 0x31637661), yuv420p, 540x960, q=2-31, 1592 kb/s, 30.07 fps, 30 tbr, 1k tbn, 1k tbc (default)
    Metadata:
      handler_name    : VideoHandler
Stream mapping:
  Stream #0:0 -> #0:0 (copy)
Press [q] to stop, [?] for help
frame=  443 fps=0.0 q=-1.0 Lsize=    2865kB time=00:00:14.85 bitrate=1579.9kbits/s speed=2.08e+03x    
video:2865kB audio:0kB subtitle:0kB other streams:0kB global headers:0kB muxing overhead: 0.000000%
ffmpeg version N-85962-g164e277 Copyright (c) 2000-2017 the FFmpeg developers
  built with Apple LLVM version 8.0.0 (clang-800.0.42.1)
  configuration: 
  libavutil      55. 62.100 / 55. 62.100
  libavcodec     57. 95.100 / 57. 95.100
  libavformat    57. 72.101 / 57. 72.101
  libavdevice    57.  7.100 / 57.  7.100
  libavfilter     6. 88.100 /  6. 88.100
  libswscale      4.  7.101 /  4.  7.101
  libswresample   2.  8.100 /  2.  8.100
Input #0, mov,mp4,m4a,3gp,3g2,mj2, from 'ios_muse_broswer.mp4':
  Metadata:
    major_brand     : mp42
    minor_version   : 1
    compatible_brands: mp41mp42isom
    creation_time   : 2017-05-09T06:43:35.000000Z
  Duration: 00:00:14.90, start: 0.000000, bitrate: 1885 kb/s
    Stream #0:0(und): Video: h264 (Main) (avc1 / 0x31637661), yuv420p, 540x960, 1771 kb/s, 30 fps, 30 tbr, 600 tbn, 1200 tbc (default)
    Metadata:
      creation_time   : 2017-05-09T06:43:35.000000Z
      handler_name    : Core Media Video
    Stream #0:1(und): Audio: aac (LC) (mp4a / 0x6134706D), 44100 Hz, stereo, fltp, 108 kb/s (default)
    Metadata:
      creation_time   : 2017-05-09T06:43:35.000000Z
      handler_name    : Core Media Audio
Output #0, h264, to 'ios_muse_broswer.mp4.ffmpeg_trans.264':
  Metadata:
    major_brand     : mp42
    minor_version   : 1
    compatible_brands: mp41mp42isom
    encoder         : Lavf57.72.101
    Stream #0:0(und): Video: h264 (Main) (avc1 / 0x31637661), yuv420p, 540x960, q=2-31, 1771 kb/s, 30 fps, 30 tbr, 600 tbn, 600 tbc (default)
    Metadata:
      creation_time   : 2017-05-09T06:43:35.000000Z
      handler_name    : Core Media Video
Stream mapping:
  Stream #0:0 -> #0:0 (copy)
Press [q] to stop, [?] for help
frame=  447 fps=0.0 q=-1.0 Lsize=    3222kB time=00:00:14.83 bitrate=1779.0kbits/s speed=1.8e+03x    
video:3222kB audio:0kB subtitle:0kB other streams:0kB global headers:0kB muxing overhead: 0.000000%
